# Blender v2.93.5 OBJ File: ''
# www.blender.org
mtllib title_2.mtl
o Asteroid
v 3.250000 0.000000 0.001073
v 3.070816 0.000000 0.317597
v 2.436695 0.000000 0.317597
v 2.436695 0.000000 -0.315451
v 3.070816 0.000000 -0.315451
v 3.042918 0.000000 0.001073
v 2.944206 0.000000 -0.173820
v 2.627682 0.000000 -0.173820
v 2.627682 0.000000 0.175966
v 2.944206 0.000000 0.175966
v 2.328326 0.000000 0.317597
v 2.137339 0.000000 0.316524
v 2.137339 0.000000 -0.315451
v 2.328326 0.000000 -0.425966
v 2.035408 0.000000 0.172747
v 1.891631 0.000000 0.316524
v 1.364807 0.000000 0.316524
v 1.221030 0.000000 0.172747
v 1.221030 0.000000 -0.171674
v 1.364807 0.000000 -0.315451
v 1.891631 0.000000 -0.315451
v 2.035408 0.000000 -0.171674
v 1.844421 0.000000 0.175966
v 1.844421 0.000000 -0.174893
v 1.412017 0.000000 -0.174893
v 1.412017 0.000000 0.175966
v 1.112661 0.000000 0.425966
v 0.921674 0.000000 0.316524
v 0.921674 0.000000 0.162017
v 0.863734 0.000000 0.105150
v 0.498927 0.000000 0.105150
v 0.498927 0.000000 0.316524
v 0.307940 0.000000 0.316524
v 0.307940 0.000000 -0.315451
v 0.968884 0.000000 -0.315451
v 1.112661 0.000000 -0.121245
v 1.003219 0.000000 0.025751
v 1.112661 0.000000 0.135193
v 0.916309 0.000000 -0.108369
v 0.865880 0.000000 -0.174893
v 0.498927 0.000000 -0.174893
v 0.498927 0.000000 -0.038627
v 0.865880 0.000000 -0.038627
v 0.245708 0.000000 -0.315451
v 0.105150 0.000000 -0.173820
v -0.319742 0.000000 -0.173820
v -0.319742 0.000000 -0.063305
v 0.153434 0.000000 -0.063305
v 0.024678 0.000000 0.065451
v -0.319742 0.000000 0.065451
v -0.319742 0.000000 0.175966
v 0.223176 0.000000 0.175966
v 0.081545 0.000000 0.317597
v -0.510730 0.000000 0.317597
v -0.510730 0.000000 -0.315451
v -0.567596 0.000000 -0.315451
v -0.708154 0.000000 -0.174893
v -0.895923 0.000000 -0.174893
v -0.895923 0.000000 0.425966
v -1.086910 0.000000 0.316524
v -1.086910 0.000000 -0.174893
v -1.274678 0.000000 -0.174893
v -1.415236 0.000000 -0.315451
v -1.494635 0.000000 0.122318
v -1.638412 0.000000 0.316524
v -2.372318 0.000000 0.316524
v -2.231760 0.000000 0.175966
v -1.750000 0.000000 0.175966
v -1.704936 0.000000 0.122318
v -1.750000 0.000000 0.065451
v -2.232833 0.000000 0.065451
v -2.372318 0.000000 -0.121245
v -2.228541 0.000000 -0.315451
v -1.494635 0.000000 -0.315451
v -1.636266 0.000000 -0.174893
v -2.116953 0.000000 -0.174893
v -2.163090 0.000000 -0.121245
v -2.116953 0.000000 -0.064378
v -1.634120 0.000000 -0.064378
v -2.482833 0.000000 0.317597
v -2.674893 0.000000 0.317597
v -2.674893 0.000000 0.135193
v -3.059013 0.000000 0.135193
v -3.059013 0.000000 0.317597
v -3.250000 0.000000 0.425966
v -3.250000 0.000000 -0.171674
v -3.106223 0.000000 -0.315451
v -2.626609 0.000000 -0.315451
v -2.482833 0.000000 -0.171674
v -2.674893 0.000000 -0.004292
v -2.674893 0.000000 -0.173820
v -3.059013 0.000000 -0.173820
v -3.059013 0.000000 -0.004292
vt 0.222222 0.000000
vt 0.777778 0.000000
vt 0.333333 0.000000
vt 0.444444 0.000000
vt 0.666667 0.000000
vt 0.000000 0.000000
vt 0.888889 0.000000
vt 0.555556 0.000000
vt 1.000000 0.000000
vt 0.111111 0.000000
vt 0.666667 0.000000
vt 0.000000 0.000000
vt 1.000000 0.000000
vt 0.333333 0.000000
vt 0.363636 0.000000
vt 0.545455 0.000000
vt 0.454545 0.000000
vt 0.909091 0.000000
vt 0.818182 0.000000
vt 0.636364 0.000000
vt 1.000000 0.000000
vt 0.727273 0.000000
vt 0.272727 0.000000
vt 0.000000 0.000000
vt 0.181818 0.000000
vt 0.090909 0.000000
vt 0.375000 0.000000
vt 0.875000 0.000000
vt 0.437500 0.000000
vt 0.500000 0.000000
vt 0.812500 0.000000
vt 0.562500 0.000000
vt 0.937500 0.000000
vt 0.750000 0.000000
vt 0.625000 0.000000
vt 1.000000 0.000000
vt 0.250000 0.000000
vt 0.187500 0.000000
vt 0.687500 0.000000
vt 0.312500 0.000000
vt 0.125000 0.000000
vt 0.000000 0.000000
vt 0.062500 0.000000
vt 0.909091 0.000000
vt 0.181818 0.000000
vt 1.000000 0.000000
vt 0.000000 0.000000
vt 0.090909 0.000000
vt 0.272727 0.000000
vt 0.545455 0.000000
vt 0.363636 0.000000
vt 0.454545 0.000000
vt 0.636364 0.000000
vt 0.727273 0.000000
vt 0.818182 0.000000
vt 0.857143 0.000000
vt 0.000000 0.000000
vt 1.000000 0.000000
vt 0.142857 0.000000
vt 0.714286 0.000000
vt 0.571429 0.000000
vt 0.285714 0.000000
vt 0.428571 0.000000
vt 0.533333 0.000000
vt 0.666667 0.000000
vt 0.600000 0.000000
vt 0.800000 0.000000
vt 0.733333 0.000000
vt 0.866667 0.000000
vt 0.466667 0.000000
vt 0.933333 0.000000
vt 1.000000 0.000000
vt 0.400000 0.000000
vt 0.000000 0.000000
vt 0.333333 0.000000
vt 0.266667 0.000000
vt 0.066667 0.000000
vt 0.133333 0.000000
vt 0.200000 0.000000
vt 0.461538 0.000000
vt 0.615385 0.000000
vt 0.538462 0.000000
vt 0.923077 0.000000
vt 0.846154 0.000000
vt 0.692308 0.000000
vt 1.000000 0.000000
vt 0.769231 0.000000
vt 0.384615 0.000000
vt 0.000000 0.000000
vt 0.230769 0.000000
vt 0.153846 0.000000
vt 0.307692 0.000000
vt 0.076923 0.000000
vn 0.0000 1.0000 0.0000
vn 0.0000 0.0000 1.0000
usemtl Matériau
s off
f 3/1/1 8/2/1 4/3/1
f 8/2/1 5/4/1 4/3/1
f 8/2/1 7/5/1 5/4/1
f 7/5/1 1/6/1 5/4/1
f 3/1/1 9/7/1 8/2/1
f 6/8/1 1/6/1 7/5/1
f 10/9/1 1/6/1 6/8/1
f 10/9/1 2/10/1 1/6/1
f 3/1/1 10/9/1 9/7/1
f 3/1/1 2/10/1 10/9/1
f 13/11/1 11/12/1 14/13/1
f 12/14/1 11/12/1 13/11/1
f 19/15/1 21/16/1 20/17/1
f 19/15/1 25/18/1 21/16/1
f 25/18/1 24/19/1 21/16/1
f 24/19/1 22/20/1 21/16/1
f 19/15/1 26/21/1 25/18/1
f 23/22/1 22/20/1 24/19/1
f 18/23/1 26/21/1 19/15/1
f 23/22/1 15/24/1 22/20/1
f 17/25/1 26/21/1 18/23/1
f 23/22/1 16/26/1 15/24/1
f 17/25/1 23/22/1 26/21/1
f 17/25/1 16/26/1 23/22/1
f 33/27/1 41/28/1 34/29/1
f 41/28/1 35/30/1 34/29/1
f 41/28/1 40/31/1 35/30/1
f 40/31/1 36/32/1 35/30/1
f 33/27/1 42/33/1 41/28/1
f 39/34/1 36/32/1 40/31/1
f 39/34/1 37/35/1 36/32/1
f 43/36/1 37/35/1 39/34/1
f 33/27/1 31/37/1 42/33/1
f 31/37/1 43/36/1 42/33/1
f 31/37/1 37/35/1 43/36/1
f 31/37/1 30/38/1 37/35/1
f 30/38/1 38/39/1 37/35/1
f 33/27/1 32/40/1 31/37/1
f 29/41/1 38/39/1 30/38/1
f 29/41/1 27/42/1 38/39/1
f 28/43/1 27/42/1 29/41/1
f 54/44/1 46/45/1 55/46/1
f 46/45/1 44/47/1 55/46/1
f 46/45/1 45/48/1 44/47/1
f 54/44/1 47/49/1 46/45/1
f 54/44/1 50/50/1 47/49/1
f 50/50/1 48/51/1 47/49/1
f 50/50/1 49/52/1 48/51/1
f 54/44/1 51/53/1 50/50/1
f 54/44/1 52/54/1 51/53/1
f 54/44/1 53/55/1 52/54/1
f 62/56/1 56/57/1 63/58/1
f 62/56/1 57/59/1 56/57/1
f 61/60/2 57/59/2 62/56/2
f 60/61/1 58/62/1 61/60/1
f 58/62/2 57/59/2 61/60/2
f 60/61/1 59/63/1 58/62/1
f 72/64/1 74/65/1 73/66/1
f 72/64/1 76/67/1 74/65/1
f 76/67/1 75/68/1 74/65/1
f 72/64/1 77/69/1 76/67/1
f 71/70/1 77/69/1 72/64/1
f 71/70/1 78/71/1 77/69/1
f 71/70/1 79/72/1 78/71/1
f 71/70/1 70/73/1 79/72/1
f 70/73/1 64/74/1 79/72/1
f 69/75/1 64/74/1 70/73/1
f 68/76/1 64/74/1 69/75/1
f 68/76/1 65/77/1 64/74/1
f 66/78/1 68/76/1 67/79/1
f 66/78/1 65/77/1 68/76/1
f 86/80/1 88/81/1 87/82/1
f 86/80/1 92/83/1 88/81/1
f 92/83/1 91/84/1 88/81/1
f 91/84/1 89/85/1 88/81/1
f 86/80/1 93/86/1 92/83/1
f 90/87/1 89/85/1 91/84/1
f 85/88/1 93/86/1 86/80/1
f 90/87/1 80/89/1 89/85/1
f 85/88/1 83/90/1 93/86/1
f 83/90/1 90/87/1 93/86/1
f 83/90/1 82/91/1 90/87/1
f 82/91/1 80/89/1 90/87/1
f 85/88/1 84/92/1 83/90/1
f 81/93/1 80/89/1 82/91/1
